<?xml version="1.0" standalone="no"?><!DOCTYPE svg PUBLIC "-//W3C//DTD SVG 1.1//EN" "http://www.w3.org/Graphics/SVG/1.1/DTD/svg11.dtd"><svg width="800" height="800" version="1.1" xmlns="http://www.w3.org/2000/svg" xmlns:xlink="http://www.w3.org/1999/xlink"><defs xmlns="http://www.w3.org/1999/xhtml"><style type="text/css"><![CDATA[
body { background-color: rgb(234, 234, 234); }
#canvas svg { box-shadow: rgba(0, 0, 0, 0.0588235) 0px 3px 2px 0px, rgba(0, 0, 0, 0.0196078) -1px -1px 1px 0px inset; border-width: 1px; border-style: solid; border-color: rgb(226, 226, 226) rgb(226, 226, 226) rgb(206, 206, 206); background-color: white; }]]></style></defs><g><rect x="20" y="20" width="100" height="100" fill="rgb(255, 255, 255)" stroke="rgb(0, 0, 0)" stroke-width="2"/><ellipse cx="70" cy="60" rx="16.5" ry="16.5" fill="rgb(255, 255, 255)" stroke="rgb(0, 0, 0)" stroke-width="2"/><ellipse cx="70" cy="44" rx="4.125" ry="4.125" fill="rgb(0, 0, 0)" stroke="rgb(0, 0, 0)" stroke-width="0.5"/><polygon points="0 0 34 0 17 45" transform="translate(53 65)" fill="rgb(255, 255, 255)" stroke="rgb(0, 0, 0)" stroke-width="2"/><polygon points="0 0 25.5 0 12.75 33.75" transform="translate(53 65)" fill="rgb(255, 255, 255)" stroke="rgb(0, 0, 0)" stroke-width="2"/><polygon points="0 0 17 0 8.5 22.5" transform="translate(53 65)" fill="rgb(255, 255, 255)" stroke="rgb(0, 0, 0)" stroke-width="2"/><polygon points="0 0 8.5 0 4.25 11.25" transform="translate(53 65)" fill="rgb(255, 255, 255)" stroke="rgb(0, 0, 0)" stroke-width="2"/><polygon points="0 0 25.5 0 12.75 33.75" transform="translate(61 65)" fill="rgb(255, 255, 255)" stroke="rgb(0, 0, 0)" stroke-width="2"/><polygon points="0 0 17 0 8.5 22.5" transform="translate(70 65)" fill="rgb(255, 255, 255)" stroke="rgb(0, 0, 0)" stroke-width="2"/><polygon points="0 0 8.5 0 4.25 11.25" transform="translate(78 65)" fill="rgb(255, 255, 255)" stroke="rgb(0, 0, 0)" stroke-width="2"/></g><g><rect x="20" y="20" width="100" height="100" fill="rgb(255, 255, 255)" stroke="rgb(0, 0, 0)" stroke-width="2"/><ellipse cx="70" cy="60" rx="16.5" ry="16.5" fill="rgb(255, 255, 255)" stroke="rgb(0, 0, 0)" stroke-width="2"/><ellipse cx="70" cy="44" rx="4.125" ry="4.125" fill="rgb(0, 0, 0)" stroke="rgb(0, 0, 0)" stroke-width="0.5"/><polygon points="0 0 34 0 17 45" transform="translate(53 65)" fill="rgb(255, 255, 255)" stroke="rgb(0, 0, 0)" stroke-width="2"/><polygon points="0 0 25.5 0 12.75 33.75" transform="translate(53 65)" fill="rgb(255, 255, 255)" stroke="rgb(0, 0, 0)" stroke-width="2"/><polygon points="0 0 17 0 8.5 22.5" transform="translate(53 65)" fill="rgb(255, 255, 255)" stroke="rgb(0, 0, 0)" stroke-width="2"/><polygon points="0 0 8.5 0 4.25 11.25" transform="translate(53 65)" fill="rgb(255, 255, 255)" stroke="rgb(0, 0, 0)" stroke-width="2"/><polygon points="0 0 25.5 0 12.75 33.75" transform="translate(61 65)" fill="rgb(255, 255, 255)" stroke="rgb(0, 0, 0)" stroke-width="2"/><polygon points="0 0 17 0 8.5 22.5" transform="translate(70 65)" fill="rgb(255, 255, 255)" stroke="rgb(0, 0, 0)" stroke-width="2"/><polygon points="0 0 8.5 0 4.25 11.25" transform="translate(78 65)" fill="rgb(255, 255, 255)" stroke="rgb(0, 0, 0)" stroke-width="2"/></g><g><rect x="20" y="20" width="100" height="100" fill="rgb(255, 255, 255)" stroke="rgb(0, 0, 0)" stroke-width="2"/><ellipse cx="70" cy="60" rx="16.5" ry="16.5" fill="rgb(255, 255, 255)" stroke="rgb(0, 0, 0)" stroke-width="2"/><ellipse cx="70" cy="44" rx="4.125" ry="4.125" fill="rgb(0, 0, 0)" stroke="rgb(0, 0, 0)" stroke-width="0.5"/><polygon points="0 0 34 0 17 45" transform="translate(53 65)" fill="rgb(255, 255, 255)" stroke="rgb(0, 0, 0)" stroke-width="2"/><polygon points="0 0 25.5 0 12.75 33.75" transform="translate(53 65)" fill="rgb(255, 255, 255)" stroke="rgb(0, 0, 0)" stroke-width="2"/><polygon points="0 0 17 0 8.5 22.5" transform="translate(53 65)" fill="rgb(255, 255, 255)" stroke="rgb(0, 0, 0)" stroke-width="2"/><polygon points="0 0 8.5 0 4.25 11.25" transform="translate(53 65)" fill="rgb(255, 255, 255)" stroke="rgb(0, 0, 0)" stroke-width="2"/><polygon points="0 0 25.5 0 12.75 33.75" transform="translate(61 65)" fill="rgb(255, 255, 255)" stroke="rgb(0, 0, 0)" stroke-width="2"/><polygon points="0 0 17 0 8.5 22.5" transform="translate(70 65)" fill="rgb(255, 255, 255)" stroke="rgb(0, 0, 0)" stroke-width="2"/><polygon points="0 0 8.5 0 4.25 11.25" transform="translate(78 65)" fill="rgb(255, 255, 255)" stroke="rgb(0, 0, 0)" stroke-width="2"/></g><g><rect x="20" y="20" width="100" height="100" fill="rgb(255, 255, 255)" stroke="rgb(0, 0, 0)" stroke-width="2"/><ellipse cx="70" cy="60" rx="16.5" ry="16.5" fill="rgb(255, 255, 255)" stroke="rgb(0, 0, 0)" stroke-width="2"/><ellipse cx="70" cy="44" rx="4.125" ry="4.125" fill="rgb(0, 0, 0)" stroke="rgb(0, 0, 0)" stroke-width="0.5"/><polygon points="0 0 34 0 17 45" transform="translate(53 65)" fill="rgb(255, 255, 255)" stroke="rgb(0, 0, 0)" stroke-width="2"/><polygon points="0 0 25.5 0 12.75 33.75" transform="translate(53 65)" fill="rgb(255, 255, 255)" stroke="rgb(0, 0, 0)" stroke-width="2"/><polygon points="0 0 17 0 8.5 22.5" transform="translate(53 65)" fill="rgb(255, 255, 255)" stroke="rgb(0, 0, 0)" stroke-width="2"/><polygon points="0 0 8.5 0 4.25 11.25" transform="translate(53 65)" fill="rgb(255, 255, 255)" stroke="rgb(0, 0, 0)" stroke-width="2"/><polygon points="0 0 25.5 0 12.75 33.75" transform="translate(61 65)" fill="rgb(255, 255, 255)" stroke="rgb(0, 0, 0)" stroke-width="2"/><polygon points="0 0 17 0 8.5 22.5" transform="translate(70 65)" fill="rgb(255, 255, 255)" stroke="rgb(0, 0, 0)" stroke-width="2"/><polygon points="0 0 8.5 0 4.25 11.25" transform="translate(78 65)" fill="rgb(255, 255, 255)" stroke="rgb(0, 0, 0)" stroke-width="2"/></g><g><rect x="20" y="20" width="100" height="100" fill="rgb(255, 255, 255)" stroke="rgb(0, 0, 0)" stroke-width="2"/><ellipse cx="70" cy="60" rx="16.5" ry="16.5" fill="rgb(255, 255, 255)" stroke="rgb(0, 0, 0)" stroke-width="2"/><ellipse cx="70" cy="44" rx="4.125" ry="4.125" fill="rgb(0, 0, 0)" stroke="rgb(0, 0, 0)" stroke-width="0.5"/><polygon points="0 0 34 0 17 45" transform="translate(53 65)" fill="rgb(255, 255, 255)" stroke="rgb(0, 0, 0)" stroke-width="2"/><polygon points="0 0 25.5 0 12.75 33.75" transform="translate(53 65)" fill="rgb(255, 255, 255)" stroke="rgb(0, 0, 0)" stroke-width="2"/><polygon points="0 0 17 0 8.5 22.5" transform="translate(53 65)" fill="rgb(255, 255, 255)" stroke="rgb(0, 0, 0)" stroke-width="2"/><polygon points="0 0 8.5 0 4.25 11.25" transform="translate(53 65)" fill="rgb(255, 255, 255)" stroke="rgb(0, 0, 0)" stroke-width="2"/><polygon points="0 0 25.5 0 12.75 33.75" transform="translate(61 65)" fill="rgb(255, 255, 255)" stroke="rgb(0, 0, 0)" stroke-width="2"/><polygon points="0 0 17 0 8.5 22.5" transform="translate(70 65)" fill="rgb(255, 255, 255)" stroke="rgb(0, 0, 0)" stroke-width="2"/><polygon points="0 0 8.5 0 4.25 11.25" transform="translate(78 65)" fill="rgb(255, 255, 255)" stroke="rgb(0, 0, 0)" stroke-width="2"/></g><g><rect x="20" y="20" width="100" height="100" fill="rgb(255, 255, 255)" stroke="rgb(0, 0, 0)" stroke-width="2"/><ellipse cx="70" cy="60" rx="16.5" ry="16.5" fill="rgb(255, 255, 255)" stroke="rgb(0, 0, 0)" stroke-width="2"/><ellipse cx="70" cy="44" rx="4.125" ry="4.125" fill="rgb(0, 0, 0)" stroke="rgb(0, 0, 0)" stroke-width="0.5"/><polygon points="0 0 34 0 17 45" transform="translate(53 65)" fill="rgb(255, 255, 255)" stroke="rgb(0, 0, 0)" stroke-width="2"/><polygon points="0 0 25.5 0 12.75 33.75" transform="translate(53 65)" fill="rgb(255, 255, 255)" stroke="rgb(0, 0, 0)" stroke-width="2"/><polygon points="0 0 17 0 8.5 22.5" transform="translate(53 65)" fill="rgb(255, 255, 255)" stroke="rgb(0, 0, 0)" stroke-width="2"/><polygon points="0 0 8.5 0 4.25 11.25" transform="translate(53 65)" fill="rgb(255, 255, 255)" stroke="rgb(0, 0, 0)" stroke-width="2"/><polygon points="0 0 25.5 0 12.75 33.75" transform="translate(61 65)" fill="rgb(255, 255, 255)" stroke="rgb(0, 0, 0)" stroke-width="2"/><polygon points="0 0 17 0 8.5 22.5" transform="translate(70 65)" fill="rgb(255, 255, 255)" stroke="rgb(0, 0, 0)" stroke-width="2"/><polygon points="0 0 8.5 0 4.25 11.25" transform="translate(78 65)" fill="rgb(255, 255, 255)" stroke="rgb(0, 0, 0)" stroke-width="2"/></g><g transform="translate(110 0)"><rect x="20" y="20" width="100" height="100" fill="rgb(255, 255, 255)" stroke="rgb(0, 0, 0)" stroke-width="2"/><ellipse cx="70" cy="60" rx="16.5" ry="16.5" fill="rgb(255, 255, 255)" stroke="rgb(0, 0, 0)" stroke-width="2"/><ellipse cx="71.5" cy="44" rx="4.125" ry="4.125" fill="rgb(0, 0, 0)" stroke="rgb(0, 0, 0)" stroke-width="0.5"/><polygon points="0 0 34 0 17 45" transform="translate(53 65)" fill="rgb(255, 255, 255)" stroke="rgb(0, 0, 0)" stroke-width="2"/><polygon points="0 0 25.5 0 12.75 33.75" transform="translate(53 65)" fill="rgb(255, 255, 255)" stroke="rgb(0, 0, 0)" stroke-width="2"/><polygon points="0 0 17 0 8.5 22.5" transform="translate(53 65)" fill="rgb(255, 255, 255)" stroke="rgb(0, 0, 0)" stroke-width="2"/><polygon points="0 0 8.5 0 4.25 11.25" transform="translate(53 65)" fill="rgb(255, 255, 255)" stroke="rgb(0, 0, 0)" stroke-width="2"/><polygon points="0 0 25.5 0 12.75 33.75" transform="translate(61 65)" fill="rgb(255, 255, 255)" stroke="rgb(0, 0, 0)" stroke-width="2"/><polygon points="0 0 17 0 8.5 22.5" transform="translate(70 65)" fill="rgb(255, 255, 255)" stroke="rgb(0, 0, 0)" stroke-width="2"/><polygon points="0 0 8.5 0 4.25 11.25" transform="translate(78 65)" fill="rgb(255, 255, 255)" stroke="rgb(0, 0, 0)" stroke-width="2"/></g><g transform="translate(110 0)"><rect x="20" y="20" width="100" height="100" fill="rgb(255, 255, 255)" stroke="rgb(0, 0, 0)" stroke-width="2"/><ellipse cx="70" cy="60" rx="16.5" ry="16.5" fill="rgb(255, 255, 255)" stroke="rgb(0, 0, 0)" stroke-width="2"/><ellipse cx="71.5" cy="44" rx="4.125" ry="4.125" fill="rgb(0, 0, 0)" stroke="rgb(0, 0, 0)" stroke-width="0.5"/><polygon points="0 0 34 0 17 45" transform="translate(53 65)" fill="rgb(255, 255, 255)" stroke="rgb(0, 0, 0)" stroke-width="2"/><polygon points="0 0 25.5 0 12.75 33.75" transform="translate(53 65)" fill="rgb(255, 255, 255)" stroke="rgb(0, 0, 0)" stroke-width="2"/><polygon points="0 0 17 0 8.5 22.5" transform="translate(53 65)" fill="rgb(255, 255, 255)" stroke="rgb(0, 0, 0)" stroke-width="2"/><polygon points="0 0 8.5 0 4.25 11.25" transform="translate(53 65)" fill="rgb(255, 255, 255)" stroke="rgb(0, 0, 0)" stroke-width="2"/><polygon points="0 0 25.5 0 12.75 33.75" transform="translate(61 65)" fill="rgb(255, 255, 255)" stroke="rgb(0, 0, 0)" stroke-width="2"/><polygon points="0 0 17 0 8.5 22.5" transform="translate(70 65)" fill="rgb(255, 255, 255)" stroke="rgb(0, 0, 0)" stroke-width="2"/><polygon points="0 0 8.5 0 4.25 11.25" transform="translate(78 65)" fill="rgb(255, 255, 255)" stroke="rgb(0, 0, 0)" stroke-width="2"/></g><g transform="translate(110 0)"><rect x="20" y="20" width="100" height="100" fill="rgb(255, 255, 255)" stroke="rgb(0, 0, 0)" stroke-width="2"/><ellipse cx="70" cy="60" rx="16.5" ry="16.5" fill="rgb(255, 255, 255)" stroke="rgb(0, 0, 0)" stroke-width="2"/><ellipse cx="71.5" cy="44" rx="4.125" ry="4.125" fill="rgb(0, 0, 0)" stroke="rgb(0, 0, 0)" stroke-width="0.5"/><polygon points="0 0 34 0 17 45" transform="translate(53 65)" fill="rgb(255, 255, 255)" stroke="rgb(0, 0, 0)" stroke-width="2"/><polygon points="0 0 25.5 0 12.75 33.75" transform="translate(53 65)" fill="rgb(255, 255, 255)" stroke="rgb(0, 0, 0)" stroke-width="2"/><polygon points="0 0 17 0 8.5 22.5" transform="translate(53 65)" fill="rgb(255, 255, 255)" stroke="rgb(0, 0, 0)" stroke-width="2"/><polygon points="0 0 8.5 0 4.25 11.25" transform="translate(53 65)" fill="rgb(255, 255, 255)" stroke="rgb(0, 0, 0)" stroke-width="2"/><polygon points="0 0 25.5 0 12.75 33.75" transform="translate(61 65)" fill="rgb(255, 255, 255)" stroke="rgb(0, 0, 0)" stroke-width="2"/><polygon points="0 0 17 0 8.5 22.5" transform="translate(70 65)" fill="rgb(255, 255, 255)" stroke="rgb(0, 0, 0)" stroke-width="2"/><polygon points="0 0 8.5 0 4.25 11.25" transform="translate(78 65)" fill="rgb(255, 255, 255)" stroke="rgb(0, 0, 0)" stroke-width="2"/></g><g transform="translate(110 0)"><rect x="20" y="20" width="100" height="100" fill="rgb(255, 255, 255)" stroke="rgb(0, 0, 0)" stroke-width="2"/><ellipse cx="70" cy="60" rx="16.5" ry="16.5" fill="rgb(255, 255, 255)" stroke="rgb(0, 0, 0)" stroke-width="2"/><ellipse cx="71.5" cy="44" rx="4.125" ry="4.125" fill="rgb(0, 0, 0)" stroke="rgb(0, 0, 0)" stroke-width="0.5"/><polygon points="0 0 34 0 17 45" transform="translate(53 65)" fill="rgb(255, 255, 255)" stroke="rgb(0, 0, 0)" stroke-width="2"/><polygon points="0 0 25.5 0 12.75 33.75" transform="translate(53 65)" fill="rgb(255, 255, 255)" stroke="rgb(0, 0, 0)" stroke-width="2"/><polygon points="0 0 17 0 8.5 22.5" transform="translate(53 65)" fill="rgb(255, 255, 255)" stroke="rgb(0, 0, 0)" stroke-width="2"/><polygon points="0 0 8.5 0 4.25 11.25" transform="translate(53 65)" fill="rgb(255, 255, 255)" stroke="rgb(0, 0, 0)" stroke-width="2"/><polygon points="0 0 25.5 0 12.75 33.75" transform="translate(61 65)" fill="rgb(255, 255, 255)" stroke="rgb(0, 0, 0)" stroke-width="2"/><polygon points="0 0 17 0 8.5 22.5" transform="translate(70 65)" fill="rgb(255, 255, 255)" stroke="rgb(0, 0, 0)" stroke-width="2"/><polygon points="0 0 8.5 0 4.25 11.25" transform="translate(78 65)" fill="rgb(255, 255, 255)" stroke="rgb(0, 0, 0)" stroke-width="2"/></g><g transform="translate(110 0)"><rect x="20" y="20" width="100" height="100" fill="rgb(255, 255, 255)" stroke="rgb(0, 0, 0)" stroke-width="2"/><ellipse cx="70" cy="60" rx="16.5" ry="16.5" fill="rgb(255, 255, 255)" stroke="rgb(0, 0, 0)" stroke-width="2"/><ellipse cx="71.5" cy="44" rx="4.125" ry="4.125" fill="rgb(0, 0, 0)" stroke="rgb(0, 0, 0)" stroke-width="0.5"/><polygon points="0 0 34 0 17 45" transform="translate(53 65)" fill="rgb(255, 255, 255)" stroke="rgb(0, 0, 0)" stroke-width="2"/><polygon points="0 0 25.5 0 12.75 33.75" transform="translate(53 65)" fill="rgb(255, 255, 255)" stroke="rgb(0, 0, 0)" stroke-width="2"/><polygon points="0 0 17 0 8.5 22.5" transform="translate(53 65)" fill="rgb(255, 255, 255)" stroke="rgb(0, 0, 0)" stroke-width="2"/><polygon points="0 0 8.5 0 4.25 11.25" transform="translate(53 65)" fill="rgb(255, 255, 255)" stroke="rgb(0, 0, 0)" stroke-width="2"/><polygon points="0 0 25.5 0 12.75 33.75" transform="translate(61 65)" fill="rgb(255, 255, 255)" stroke="rgb(0, 0, 0)" stroke-width="2"/><polygon points="0 0 17 0 8.5 22.5" transform="translate(70 65)" fill="rgb(255, 255, 255)" stroke="rgb(0, 0, 0)" stroke-width="2"/><polygon points="0 0 8.5 0 4.25 11.25" transform="translate(78 65)" fill="rgb(255, 255, 255)" stroke="rgb(0, 0, 0)" stroke-width="2"/></g><g transform="translate(110 0)"><rect x="20" y="20" width="100" height="100" fill="rgb(255, 255, 255)" stroke="rgb(0, 0, 0)" stroke-width="2"/><ellipse cx="70" cy="60" rx="16.5" ry="16.5" fill="rgb(255, 255, 255)" stroke="rgb(0, 0, 0)" stroke-width="2"/><ellipse cx="71.5" cy="44" rx="4.125" ry="4.125" fill="rgb(0, 0, 0)" stroke="rgb(0, 0, 0)" stroke-width="0.5"/><polygon points="0 0 34 0 17 45" transform="translate(53 65)" fill="rgb(255, 255, 255)" stroke="rgb(0, 0, 0)" stroke-width="2"/><polygon points="0 0 25.5 0 12.75 33.75" transform="translate(53 65)" fill="rgb(255, 255, 255)" stroke="rgb(0, 0, 0)" stroke-width="2"/><polygon points="0 0 17 0 8.5 22.5" transform="translate(53 65)" fill="rgb(255, 255, 255)" stroke="rgb(0, 0, 0)" stroke-width="2"/><polygon points="0 0 8.5 0 4.25 11.25" transform="translate(53 65)" fill="rgb(255, 255, 255)" stroke="rgb(0, 0, 0)" stroke-width="2"/><polygon points="0 0 25.5 0 12.75 33.75" transform="translate(61 65)" fill="rgb(255, 255, 255)" stroke="rgb(0, 0, 0)" stroke-width="2"/><polygon points="0 0 17 0 8.5 22.5" transform="translate(70 65)" fill="rgb(255, 255, 255)" stroke="rgb(0, 0, 0)" stroke-width="2"/><polygon points="0 0 8.5 0 4.25 11.25" transform="translate(78 65)" fill="rgb(255, 255, 255)" stroke="rgb(0, 0, 0)" stroke-width="2"/></g><g transform="translate(220 0)"><rect x="20" y="20" width="100" height="100" fill="rgb(255, 255, 255)" stroke="rgb(0, 0, 0)" stroke-width="2"/><ellipse cx="70" cy="60" rx="16.5" ry="16.5" fill="rgb(255, 255, 255)" stroke="rgb(0, 0, 0)" stroke-width="2"/><ellipse cx="73" cy="44" rx="4.125" ry="4.125" fill="rgb(0, 0, 0)" stroke="rgb(0, 0, 0)" stroke-width="0.5"/><polygon points="0 0 34 0 17 45" transform="translate(53 65)" fill="rgb(255, 255, 255)" stroke="rgb(0, 0, 0)" stroke-width="2"/><polygon points="0 0 25.5 0 12.75 33.75" transform="translate(53 65)" fill="rgb(255, 255, 255)" stroke="rgb(0, 0, 0)" stroke-width="2"/><polygon points="0 0 17 0 8.5 22.5" transform="translate(53 65)" fill="rgb(255, 255, 255)" stroke="rgb(0, 0, 0)" stroke-width="2"/><polygon points="0 0 8.5 0 4.25 11.25" transform="translate(53 65)" fill="rgb(255, 255, 255)" stroke="rgb(0, 0, 0)" stroke-width="2"/><polygon points="0 0 25.5 0 12.75 33.75" transform="translate(61 65)" fill="rgb(255, 255, 255)" stroke="rgb(0, 0, 0)" stroke-width="2"/><polygon points="0 0 17 0 8.5 22.5" transform="translate(70 65)" fill="rgb(255, 255, 255)" stroke="rgb(0, 0, 0)" stroke-width="2"/><polygon points="0 0 8.5 0 4.25 11.25" transform="translate(78 65)" fill="rgb(255, 255, 255)" stroke="rgb(0, 0, 0)" stroke-width="2"/></g><g transform="translate(220 0)"><rect x="20" y="20" width="100" height="100" fill="rgb(255, 255, 255)" stroke="rgb(0, 0, 0)" stroke-width="2"/><ellipse cx="70" cy="60" rx="16.5" ry="16.5" fill="rgb(255, 255, 255)" stroke="rgb(0, 0, 0)" stroke-width="2"/><ellipse cx="73" cy="44" rx="4.125" ry="4.125" fill="rgb(0, 0, 0)" stroke="rgb(0, 0, 0)" stroke-width="0.5"/><polygon points="0 0 34 0 17 45" transform="translate(53 65)" fill="rgb(255, 255, 255)" stroke="rgb(0, 0, 0)" stroke-width="2"/><polygon points="0 0 25.5 0 12.75 33.75" transform="translate(53 65)" fill="rgb(255, 255, 255)" stroke="rgb(0, 0, 0)" stroke-width="2"/><polygon points="0 0 17 0 8.5 22.5" transform="translate(53 65)" fill="rgb(255, 255, 255)" stroke="rgb(0, 0, 0)" stroke-width="2"/><polygon points="0 0 8.5 0 4.25 11.25" transform="translate(53 65)" fill="rgb(255, 255, 255)" stroke="rgb(0, 0, 0)" stroke-width="2"/><polygon points="0 0 25.5 0 12.75 33.75" transform="translate(61 65)" fill="rgb(255, 255, 255)" stroke="rgb(0, 0, 0)" stroke-width="2"/><polygon points="0 0 17 0 8.5 22.5" transform="translate(70 65)" fill="rgb(255, 255, 255)" stroke="rgb(0, 0, 0)" stroke-width="2"/><polygon points="0 0 8.5 0 4.25 11.25" transform="translate(78 65)" fill="rgb(255, 255, 255)" stroke="rgb(0, 0, 0)" stroke-width="2"/></g><g transform="translate(220 0)"><rect x="20" y="20" width="100" height="100" fill="rgb(255, 255, 255)" stroke="rgb(0, 0, 0)" stroke-width="2"/><ellipse cx="70" cy="60" rx="16.5" ry="16.5" fill="rgb(255, 255, 255)" stroke="rgb(0, 0, 0)" stroke-width="2"/><ellipse cx="73" cy="44" rx="4.125" ry="4.125" fill="rgb(0, 0, 0)" stroke="rgb(0, 0, 0)" stroke-width="0.5"/><polygon points="0 0 34 0 17 45" transform="translate(53 65)" fill="rgb(255, 255, 255)" stroke="rgb(0, 0, 0)" stroke-width="2"/><polygon points="0 0 25.5 0 12.75 33.75" transform="translate(53 65)" fill="rgb(255, 255, 255)" stroke="rgb(0, 0, 0)" stroke-width="2"/><polygon points="0 0 17 0 8.5 22.5" transform="translate(53 65)" fill="rgb(255, 255, 255)" stroke="rgb(0, 0, 0)" stroke-width="2"/><polygon points="0 0 8.5 0 4.25 11.25" transform="translate(53 65)" fill="rgb(255, 255, 255)" stroke="rgb(0, 0, 0)" stroke-width="2"/><polygon points="0 0 25.5 0 12.75 33.75" transform="translate(61 65)" fill="rgb(255, 255, 255)" stroke="rgb(0, 0, 0)" stroke-width="2"/><polygon points="0 0 17 0 8.5 22.5" transform="translate(70 65)" fill="rgb(255, 255, 255)" stroke="rgb(0, 0, 0)" stroke-width="2"/><polygon points="0 0 8.5 0 4.25 11.25" transform="translate(78 65)" fill="rgb(255, 255, 255)" stroke="rgb(0, 0, 0)" stroke-width="2"/></g><g transform="translate(220 0)"><rect x="20" y="20" width="100" height="100" fill="rgb(255, 255, 255)" stroke="rgb(0, 0, 0)" stroke-width="2"/><ellipse cx="70" cy="60" rx="16.5" ry="16.5" fill="rgb(255, 255, 255)" stroke="rgb(0, 0, 0)" stroke-width="2"/><ellipse cx="73" cy="44" rx="4.125" ry="4.125" fill="rgb(0, 0, 0)" stroke="rgb(0, 0, 0)" stroke-width="0.5"/><polygon points="0 0 34 0 17 45" transform="translate(53 65)" fill="rgb(255, 255, 255)" stroke="rgb(0, 0, 0)" stroke-width="2"/><polygon points="0 0 25.5 0 12.75 33.75" transform="translate(53 65)" fill="rgb(255, 255, 255)" stroke="rgb(0, 0, 0)" stroke-width="2"/><polygon points="0 0 17 0 8.5 22.5" transform="translate(53 65)" fill="rgb(255, 255, 255)" stroke="rgb(0, 0, 0)" stroke-width="2"/><polygon points="0 0 8.5 0 4.25 11.25" transform="translate(53 65)" fill="rgb(255, 255, 255)" stroke="rgb(0, 0, 0)" stroke-width="2"/><polygon points="0 0 25.5 0 12.75 33.75" transform="translate(61 65)" fill="rgb(255, 255, 255)" stroke="rgb(0, 0, 0)" stroke-width="2"/><polygon points="0 0 17 0 8.5 22.5" transform="translate(70 65)" fill="rgb(255, 255, 255)" stroke="rgb(0, 0, 0)" stroke-width="2"/><polygon points="0 0 8.5 0 4.25 11.25" transform="translate(78 65)" fill="rgb(255, 255, 255)" stroke="rgb(0, 0, 0)" stroke-width="2"/></g><g transform="translate(220 0)"><rect x="20" y="20" width="100" height="100" fill="rgb(255, 255, 255)" stroke="rgb(0, 0, 0)" stroke-width="2"/><ellipse cx="70" cy="60" rx="16.5" ry="16.5" fill="rgb(255, 255, 255)" stroke="rgb(0, 0, 0)" stroke-width="2"/><ellipse cx="73" cy="44" rx="4.125" ry="4.125" fill="rgb(0, 0, 0)" stroke="rgb(0, 0, 0)" stroke-width="0.5"/><polygon points="0 0 34 0 17 45" transform="translate(53 65)" fill="rgb(255, 255, 255)" stroke="rgb(0, 0, 0)" stroke-width="2"/><polygon points="0 0 25.5 0 12.75 33.75" transform="translate(53 65)" fill="rgb(255, 255, 255)" stroke="rgb(0, 0, 0)" stroke-width="2"/><polygon points="0 0 17 0 8.5 22.5" transform="translate(53 65)" fill="rgb(255, 255, 255)" stroke="rgb(0, 0, 0)" stroke-width="2"/><polygon points="0 0 8.5 0 4.25 11.25" transform="translate(53 65)" fill="rgb(255, 255, 255)" stroke="rgb(0, 0, 0)" stroke-width="2"/><polygon points="0 0 25.5 0 12.75 33.75" transform="translate(61 65)" fill="rgb(255, 255, 255)" stroke="rgb(0, 0, 0)" stroke-width="2"/><polygon points="0 0 17 0 8.5 22.5" transform="translate(70 65)" fill="rgb(255, 255, 255)" stroke="rgb(0, 0, 0)" stroke-width="2"/><polygon points="0 0 8.5 0 4.25 11.25" transform="translate(78 65)" fill="rgb(255, 255, 255)" stroke="rgb(0, 0, 0)" stroke-width="2"/></g><g transform="translate(220 0)"><rect x="20" y="20" width="100" height="100" fill="rgb(255, 255, 255)" stroke="rgb(0, 0, 0)" stroke-width="2"/><ellipse cx="70" cy="60" rx="16.5" ry="16.5" fill="rgb(255, 255, 255)" stroke="rgb(0, 0, 0)" stroke-width="2"/><ellipse cx="73" cy="44" rx="4.125" ry="4.125" fill="rgb(0, 0, 0)" stroke="rgb(0, 0, 0)" stroke-width="0.5"/><polygon points="0 0 34 0 17 45" transform="translate(53 65)" fill="rgb(255, 255, 255)" stroke="rgb(0, 0, 0)" stroke-width="2"/><polygon points="0 0 25.5 0 12.75 33.75" transform="translate(53 65)" fill="rgb(255, 255, 255)" stroke="rgb(0, 0, 0)" stroke-width="2"/><polygon points="0 0 17 0 8.5 22.5" transform="translate(53 65)" fill="rgb(255, 255, 255)" stroke="rgb(0, 0, 0)" stroke-width="2"/><polygon points="0 0 8.5 0 4.25 11.25" transform="translate(53 65)" fill="rgb(255, 255, 255)" stroke="rgb(0, 0, 0)" stroke-width="2"/><polygon points="0 0 25.5 0 12.75 33.75" transform="translate(61 65)" fill="rgb(255, 255, 255)" stroke="rgb(0, 0, 0)" stroke-width="2"/><polygon points="0 0 17 0 8.5 22.5" transform="translate(70 65)" fill="rgb(255, 255, 255)" stroke="rgb(0, 0, 0)" stroke-width="2"/><polygon points="0 0 8.5 0 4.25 11.25" transform="translate(78 65)" fill="rgb(255, 255, 255)" stroke="rgb(0, 0, 0)" stroke-width="2"/></g><g transform="translate(330 0)"><rect x="20" y="20" width="100" height="100" fill="rgb(255, 255, 255)" stroke="rgb(0, 0, 0)" stroke-width="2"/><ellipse cx="70" cy="60" rx="16.5" ry="16.5" fill="rgb(255, 255, 255)" stroke="rgb(0, 0, 0)" stroke-width="2"/><ellipse cx="74.5" cy="44" rx="4.125" ry="4.125" fill="rgb(0, 0, 0)" stroke="rgb(0, 0, 0)" stroke-width="0.5"/><polygon points="0 0 34 0 17 45" transform="translate(53 65)" fill="rgb(255, 255, 255)" stroke="rgb(0, 0, 0)" stroke-width="2"/><polygon points="0 0 25.5 0 12.75 33.75" transform="translate(53 65)" fill="rgb(255, 255, 255)" stroke="rgb(0, 0, 0)" stroke-width="2"/><polygon points="0 0 17 0 8.5 22.5" transform="translate(53 65)" fill="rgb(255, 255, 255)" stroke="rgb(0, 0, 0)" stroke-width="2"/><polygon points="0 0 8.5 0 4.25 11.25" transform="translate(53 65)" fill="rgb(255, 255, 255)" stroke="rgb(0, 0, 0)" stroke-width="2"/><polygon points="0 0 25.5 0 12.75 33.75" transform="translate(61 65)" fill="rgb(255, 255, 255)" stroke="rgb(0, 0, 0)" stroke-width="2"/><polygon points="0 0 17 0 8.5 22.5" transform="translate(70 65)" fill="rgb(255, 255, 255)" stroke="rgb(0, 0, 0)" stroke-width="2"/><polygon points="0 0 8.5 0 4.25 11.25" transform="translate(78 65)" fill="rgb(255, 255, 255)" stroke="rgb(0, 0, 0)" stroke-width="2"/></g><g transform="translate(330 0)"><rect x="20" y="20" width="100" height="100" fill="rgb(255, 255, 255)" stroke="rgb(0, 0, 0)" stroke-width="2"/><ellipse cx="70" cy="60" rx="16.5" ry="16.5" fill="rgb(255, 255, 255)" stroke="rgb(0, 0, 0)" stroke-width="2"/><ellipse cx="74.5" cy="44" rx="4.125" ry="4.125" fill="rgb(0, 0, 0)" stroke="rgb(0, 0, 0)" stroke-width="0.5"/><polygon points="0 0 34 0 17 45" transform="translate(53 65)" fill="rgb(255, 255, 255)" stroke="rgb(0, 0, 0)" stroke-width="2"/><polygon points="0 0 25.5 0 12.75 33.75" transform="translate(53 65)" fill="rgb(255, 255, 255)" stroke="rgb(0, 0, 0)" stroke-width="2"/><polygon points="0 0 17 0 8.5 22.5" transform="translate(53 65)" fill="rgb(255, 255, 255)" stroke="rgb(0, 0, 0)" stroke-width="2"/><polygon points="0 0 8.5 0 4.25 11.25" transform="translate(53 65)" fill="rgb(255, 255, 255)" stroke="rgb(0, 0, 0)" stroke-width="2"/><polygon points="0 0 25.5 0 12.75 33.75" transform="translate(61 65)" fill="rgb(255, 255, 255)" stroke="rgb(0, 0, 0)" stroke-width="2"/><polygon points="0 0 17 0 8.5 22.5" transform="translate(70 65)" fill="rgb(255, 255, 255)" stroke="rgb(0, 0, 0)" stroke-width="2"/><polygon points="0 0 8.5 0 4.25 11.25" transform="translate(78 65)" fill="rgb(255, 255, 255)" stroke="rgb(0, 0, 0)" stroke-width="2"/></g><g transform="translate(330 0)"><rect x="20" y="20" width="100" height="100" fill="rgb(255, 255, 255)" stroke="rgb(0, 0, 0)" stroke-width="2"/><ellipse cx="70" cy="60" rx="16.5" ry="16.5" fill="rgb(255, 255, 255)" stroke="rgb(0, 0, 0)" stroke-width="2"/><ellipse cx="74.5" cy="44" rx="4.125" ry="4.125" fill="rgb(0, 0, 0)" stroke="rgb(0, 0, 0)" stroke-width="0.5"/><polygon points="0 0 34 0 17 45" transform="translate(53 65)" fill="rgb(255, 255, 255)" stroke="rgb(0, 0, 0)" stroke-width="2"/><polygon points="0 0 25.5 0 12.75 33.75" transform="translate(53 65)" fill="rgb(255, 255, 255)" stroke="rgb(0, 0, 0)" stroke-width="2"/><polygon points="0 0 17 0 8.5 22.5" transform="translate(53 65)" fill="rgb(255, 255, 255)" stroke="rgb(0, 0, 0)" stroke-width="2"/><polygon points="0 0 8.5 0 4.25 11.25" transform="translate(53 65)" fill="rgb(255, 255, 255)" stroke="rgb(0, 0, 0)" stroke-width="2"/><polygon points="0 0 25.5 0 12.75 33.75" transform="translate(61 65)" fill="rgb(255, 255, 255)" stroke="rgb(0, 0, 0)" stroke-width="2"/><polygon points="0 0 17 0 8.5 22.5" transform="translate(70 65)" fill="rgb(255, 255, 255)" stroke="rgb(0, 0, 0)" stroke-width="2"/><polygon points="0 0 8.5 0 4.25 11.25" transform="translate(78 65)" fill="rgb(255, 255, 255)" stroke="rgb(0, 0, 0)" stroke-width="2"/></g><g transform="translate(330 0)"><rect x="20" y="20" width="100" height="100" fill="rgb(255, 255, 255)" stroke="rgb(0, 0, 0)" stroke-width="2"/><ellipse cx="70" cy="60" rx="16.5" ry="16.5" fill="rgb(255, 255, 255)" stroke="rgb(0, 0, 0)" stroke-width="2"/><ellipse cx="74.5" cy="44" rx="4.125" ry="4.125" fill="rgb(0, 0, 0)" stroke="rgb(0, 0, 0)" stroke-width="0.5"/><polygon points="0 0 34 0 17 45" transform="translate(53 65)" fill="rgb(255, 255, 255)" stroke="rgb(0, 0, 0)" stroke-width="2"/><polygon points="0 0 25.5 0 12.75 33.75" transform="translate(53 65)" fill="rgb(255, 255, 255)" stroke="rgb(0, 0, 0)" stroke-width="2"/><polygon points="0 0 17 0 8.5 22.5" transform="translate(53 65)" fill="rgb(255, 255, 255)" stroke="rgb(0, 0, 0)" stroke-width="2"/><polygon points="0 0 8.5 0 4.25 11.25" transform="translate(53 65)" fill="rgb(255, 255, 255)" stroke="rgb(0, 0, 0)" stroke-width="2"/><polygon points="0 0 25.5 0 12.75 33.75" transform="translate(61 65)" fill="rgb(255, 255, 255)" stroke="rgb(0, 0, 0)" stroke-width="2"/><polygon points="0 0 17 0 8.5 22.5" transform="translate(70 65)" fill="rgb(255, 255, 255)" stroke="rgb(0, 0, 0)" stroke-width="2"/><polygon points="0 0 8.5 0 4.25 11.25" transform="translate(78 65)" fill="rgb(255, 255, 255)" stroke="rgb(0, 0, 0)" stroke-width="2"/></g><g transform="translate(330 0)"><rect x="20" y="20" width="100" height="100" fill="rgb(255, 255, 255)" stroke="rgb(0, 0, 0)" stroke-width="2"/><ellipse cx="70" cy="60" rx="16.5" ry="16.5" fill="rgb(255, 255, 255)" stroke="rgb(0, 0, 0)" stroke-width="2"/><ellipse cx="74.5" cy="44" rx="4.125" ry="4.125" fill="rgb(0, 0, 0)" stroke="rgb(0, 0, 0)" stroke-width="0.5"/><polygon points="0 0 34 0 17 45" transform="translate(53 65)" fill="rgb(255, 255, 255)" stroke="rgb(0, 0, 0)" stroke-width="2"/><polygon points="0 0 25.5 0 12.75 33.75" transform="translate(53 65)" fill="rgb(255, 255, 255)" stroke="rgb(0, 0, 0)" stroke-width="2"/><polygon points="0 0 17 0 8.5 22.5" transform="translate(53 65)" fill="rgb(255, 255, 255)" stroke="rgb(0, 0, 0)" stroke-width="2"/><polygon points="0 0 8.5 0 4.25 11.25" transform="translate(53 65)" fill="rgb(255, 255, 255)" stroke="rgb(0, 0, 0)" stroke-width="2"/><polygon points="0 0 25.5 0 12.75 33.75" transform="translate(61 65)" fill="rgb(255, 255, 255)" stroke="rgb(0, 0, 0)" stroke-width="2"/><polygon points="0 0 17 0 8.5 22.5" transform="translate(70 65)" fill="rgb(255, 255, 255)" stroke="rgb(0, 0, 0)" stroke-width="2"/><polygon points="0 0 8.5 0 4.25 11.25" transform="translate(78 65)" fill="rgb(255, 255, 255)" stroke="rgb(0, 0, 0)" stroke-width="2"/></g><g transform="translate(330 0)"><rect x="20" y="20" width="100" height="100" fill="rgb(255, 255, 255)" stroke="rgb(0, 0, 0)" stroke-width="2"/><ellipse cx="70" cy="60" rx="16.5" ry="16.5" fill="rgb(255, 255, 255)" stroke="rgb(0, 0, 0)" stroke-width="2"/><ellipse cx="74.5" cy="44" rx="4.125" ry="4.125" fill="rgb(0, 0, 0)" stroke="rgb(0, 0, 0)" stroke-width="0.5"/><polygon points="0 0 34 0 17 45" transform="translate(53 65)" fill="rgb(255, 255, 255)" stroke="rgb(0, 0, 0)" stroke-width="2"/><polygon points="0 0 25.5 0 12.75 33.75" transform="translate(53 65)" fill="rgb(255, 255, 255)" stroke="rgb(0, 0, 0)" stroke-width="2"/><polygon points="0 0 17 0 8.5 22.5" transform="translate(53 65)" fill="rgb(255, 255, 255)" stroke="rgb(0, 0, 0)" stroke-width="2"/><polygon points="0 0 8.5 0 4.25 11.25" transform="translate(53 65)" fill="rgb(255, 255, 255)" stroke="rgb(0, 0, 0)" stroke-width="2"/><polygon points="0 0 25.5 0 12.75 33.75" transform="translate(61 65)" fill="rgb(255, 255, 255)" stroke="rgb(0, 0, 0)" stroke-width="2"/><polygon points="0 0 17 0 8.5 22.5" transform="translate(70 65)" fill="rgb(255, 255, 255)" stroke="rgb(0, 0, 0)" stroke-width="2"/><polygon points="0 0 8.5 0 4.25 11.25" transform="translate(78 65)" fill="rgb(255, 255, 255)" stroke="rgb(0, 0, 0)" stroke-width="2"/></g><g transform="translate(440 0)"><rect x="20" y="20" width="100" height="100" fill="rgb(255, 255, 255)" stroke="rgb(0, 0, 0)" stroke-width="2"/><ellipse cx="70" cy="60" rx="16.5" ry="16.5" fill="rgb(255, 255, 255)" stroke="rgb(0, 0, 0)" stroke-width="2"/><ellipse cx="76" cy="44" rx="4.125" ry="4.125" fill="rgb(0, 0, 0)" stroke="rgb(0, 0, 0)" stroke-width="0.5"/><polygon points="0 0 34 0 17 45" transform="translate(53 65)" fill="rgb(255, 255, 255)" stroke="rgb(0, 0, 0)" stroke-width="2"/><polygon points="0 0 25.5 0 12.75 33.75" transform="translate(53 65)" fill="rgb(255, 255, 255)" stroke="rgb(0, 0, 0)" stroke-width="2"/><polygon points="0 0 17 0 8.5 22.5" transform="translate(53 65)" fill="rgb(255, 255, 255)" stroke="rgb(0, 0, 0)" stroke-width="2"/><polygon points="0 0 8.5 0 4.25 11.25" transform="translate(53 65)" fill="rgb(255, 255, 255)" stroke="rgb(0, 0, 0)" stroke-width="2"/><polygon points="0 0 25.5 0 12.75 33.75" transform="translate(61 65)" fill="rgb(255, 255, 255)" stroke="rgb(0, 0, 0)" stroke-width="2"/><polygon points="0 0 17 0 8.5 22.5" transform="translate(70 65)" fill="rgb(255, 255, 255)" stroke="rgb(0, 0, 0)" stroke-width="2"/><polygon points="0 0 8.5 0 4.25 11.25" transform="translate(78 65)" fill="rgb(255, 255, 255)" stroke="rgb(0, 0, 0)" stroke-width="2"/></g><g transform="translate(440 0)"><rect x="20" y="20" width="100" height="100" fill="rgb(255, 255, 255)" stroke="rgb(0, 0, 0)" stroke-width="2"/><ellipse cx="70" cy="60" rx="16.5" ry="16.5" fill="rgb(255, 255, 255)" stroke="rgb(0, 0, 0)" stroke-width="2"/><ellipse cx="76" cy="44" rx="4.125" ry="4.125" fill="rgb(0, 0, 0)" stroke="rgb(0, 0, 0)" stroke-width="0.5"/><polygon points="0 0 34 0 17 45" transform="translate(53 65)" fill="rgb(255, 255, 255)" stroke="rgb(0, 0, 0)" stroke-width="2"/><polygon points="0 0 25.5 0 12.75 33.75" transform="translate(53 65)" fill="rgb(255, 255, 255)" stroke="rgb(0, 0, 0)" stroke-width="2"/><polygon points="0 0 17 0 8.5 22.5" transform="translate(53 65)" fill="rgb(255, 255, 255)" stroke="rgb(0, 0, 0)" stroke-width="2"/><polygon points="0 0 8.5 0 4.25 11.25" transform="translate(53 65)" fill="rgb(255, 255, 255)" stroke="rgb(0, 0, 0)" stroke-width="2"/><polygon points="0 0 25.5 0 12.75 33.75" transform="translate(61 65)" fill="rgb(255, 255, 255)" stroke="rgb(0, 0, 0)" stroke-width="2"/><polygon points="0 0 17 0 8.5 22.5" transform="translate(70 65)" fill="rgb(255, 255, 255)" stroke="rgb(0, 0, 0)" stroke-width="2"/><polygon points="0 0 8.5 0 4.25 11.25" transform="translate(78 65)" fill="rgb(255, 255, 255)" stroke="rgb(0, 0, 0)" stroke-width="2"/></g><g transform="translate(440 0)"><rect x="20" y="20" width="100" height="100" fill="rgb(255, 255, 255)" stroke="rgb(0, 0, 0)" stroke-width="2"/><ellipse cx="70" cy="60" rx="16.5" ry="16.5" fill="rgb(255, 255, 255)" stroke="rgb(0, 0, 0)" stroke-width="2"/><ellipse cx="76" cy="44" rx="4.125" ry="4.125" fill="rgb(0, 0, 0)" stroke="rgb(0, 0, 0)" stroke-width="0.5"/><polygon points="0 0 34 0 17 45" transform="translate(53 65)" fill="rgb(255, 255, 255)" stroke="rgb(0, 0, 0)" stroke-width="2"/><polygon points="0 0 25.5 0 12.75 33.75" transform="translate(53 65)" fill="rgb(255, 255, 255)" stroke="rgb(0, 0, 0)" stroke-width="2"/><polygon points="0 0 17 0 8.5 22.5" transform="translate(53 65)" fill="rgb(255, 255, 255)" stroke="rgb(0, 0, 0)" stroke-width="2"/><polygon points="0 0 8.5 0 4.25 11.25" transform="translate(53 65)" fill="rgb(255, 255, 255)" stroke="rgb(0, 0, 0)" stroke-width="2"/><polygon points="0 0 25.5 0 12.75 33.75" transform="translate(61 65)" fill="rgb(255, 255, 255)" stroke="rgb(0, 0, 0)" stroke-width="2"/><polygon points="0 0 17 0 8.5 22.5" transform="translate(70 65)" fill="rgb(255, 255, 255)" stroke="rgb(0, 0, 0)" stroke-width="2"/><polygon points="0 0 8.5 0 4.25 11.25" transform="translate(78 65)" fill="rgb(255, 255, 255)" stroke="rgb(0, 0, 0)" stroke-width="2"/></g><g transform="translate(440 0)"><rect x="20" y="20" width="100" height="100" fill="rgb(255, 255, 255)" stroke="rgb(0, 0, 0)" stroke-width="2"/><ellipse cx="70" cy="60" rx="16.5" ry="16.5" fill="rgb(255, 255, 255)" stroke="rgb(0, 0, 0)" stroke-width="2"/><ellipse cx="76" cy="44" rx="4.125" ry="4.125" fill="rgb(0, 0, 0)" stroke="rgb(0, 0, 0)" stroke-width="0.5"/><polygon points="0 0 34 0 17 45" transform="translate(53 65)" fill="rgb(255, 255, 255)" stroke="rgb(0, 0, 0)" stroke-width="2"/><polygon points="0 0 25.5 0 12.75 33.75" transform="translate(53 65)" fill="rgb(255, 255, 255)" stroke="rgb(0, 0, 0)" stroke-width="2"/><polygon points="0 0 17 0 8.5 22.5" transform="translate(53 65)" fill="rgb(255, 255, 255)" stroke="rgb(0, 0, 0)" stroke-width="2"/><polygon points="0 0 8.5 0 4.25 11.25" transform="translate(53 65)" fill="rgb(255, 255, 255)" stroke="rgb(0, 0, 0)" stroke-width="2"/><polygon points="0 0 25.5 0 12.75 33.75" transform="translate(61 65)" fill="rgb(255, 255, 255)" stroke="rgb(0, 0, 0)" stroke-width="2"/><polygon points="0 0 17 0 8.5 22.5" transform="translate(70 65)" fill="rgb(255, 255, 255)" stroke="rgb(0, 0, 0)" stroke-width="2"/><polygon points="0 0 8.5 0 4.25 11.25" transform="translate(78 65)" fill="rgb(255, 255, 255)" stroke="rgb(0, 0, 0)" stroke-width="2"/></g><g transform="translate(440 0)"><rect x="20" y="20" width="100" height="100" fill="rgb(255, 255, 255)" stroke="rgb(0, 0, 0)" stroke-width="2"/><ellipse cx="70" cy="60" rx="16.5" ry="16.5" fill="rgb(255, 255, 255)" stroke="rgb(0, 0, 0)" stroke-width="2"/><ellipse cx="76" cy="44" rx="4.125" ry="4.125" fill="rgb(0, 0, 0)" stroke="rgb(0, 0, 0)" stroke-width="0.5"/><polygon points="0 0 34 0 17 45" transform="translate(53 65)" fill="rgb(255, 255, 255)" stroke="rgb(0, 0, 0)" stroke-width="2"/><polygon points="0 0 25.5 0 12.75 33.75" transform="translate(53 65)" fill="rgb(255, 255, 255)" stroke="rgb(0, 0, 0)" stroke-width="2"/><polygon points="0 0 17 0 8.5 22.5" transform="translate(53 65)" fill="rgb(255, 255, 255)" stroke="rgb(0, 0, 0)" stroke-width="2"/><polygon points="0 0 8.5 0 4.25 11.25" transform="translate(53 65)" fill="rgb(255, 255, 255)" stroke="rgb(0, 0, 0)" stroke-width="2"/><polygon points="0 0 25.5 0 12.75 33.75" transform="translate(61 65)" fill="rgb(255, 255, 255)" stroke="rgb(0, 0, 0)" stroke-width="2"/><polygon points="0 0 17 0 8.5 22.5" transform="translate(70 65)" fill="rgb(255, 255, 255)" stroke="rgb(0, 0, 0)" stroke-width="2"/><polygon points="0 0 8.5 0 4.25 11.25" transform="translate(78 65)" fill="rgb(255, 255, 255)" stroke="rgb(0, 0, 0)" stroke-width="2"/></g><g transform="translate(440 0)"><rect x="20" y="20" width="100" height="100" fill="rgb(255, 255, 255)" stroke="rgb(0, 0, 0)" stroke-width="2"/><ellipse cx="70" cy="60" rx="16.5" ry="16.5" fill="rgb(255, 255, 255)" stroke="rgb(0, 0, 0)" stroke-width="2"/><ellipse cx="76" cy="44" rx="4.125" ry="4.125" fill="rgb(0, 0, 0)" stroke="rgb(0, 0, 0)" stroke-width="0.5"/><polygon points="0 0 34 0 17 45" transform="translate(53 65)" fill="rgb(255, 255, 255)" stroke="rgb(0, 0, 0)" stroke-width="2"/><polygon points="0 0 25.5 0 12.75 33.75" transform="translate(53 65)" fill="rgb(255, 255, 255)" stroke="rgb(0, 0, 0)" stroke-width="2"/><polygon points="0 0 17 0 8.5 22.5" transform="translate(53 65)" fill="rgb(255, 255, 255)" stroke="rgb(0, 0, 0)" stroke-width="2"/><polygon points="0 0 8.5 0 4.25 11.25" transform="translate(53 65)" fill="rgb(255, 255, 255)" stroke="rgb(0, 0, 0)" stroke-width="2"/><polygon points="0 0 25.5 0 12.75 33.75" transform="translate(61 65)" fill="rgb(255, 255, 255)" stroke="rgb(0, 0, 0)" stroke-width="2"/><polygon points="0 0 17 0 8.5 22.5" transform="translate(70 65)" fill="rgb(255, 255, 255)" stroke="rgb(0, 0, 0)" stroke-width="2"/><polygon points="0 0 8.5 0 4.25 11.25" transform="translate(78 65)" fill="rgb(255, 255, 255)" stroke="rgb(0, 0, 0)" stroke-width="2"/></g><g transform="translate(550 0)"><rect x="20" y="20" width="100" height="100" fill="rgb(255, 255, 255)" stroke="rgb(0, 0, 0)" stroke-width="2"/><ellipse cx="70" cy="60" rx="16.5" ry="16.5" fill="rgb(255, 255, 255)" stroke="rgb(0, 0, 0)" stroke-width="2"/><ellipse cx="77.5" cy="44" rx="4.125" ry="4.125" fill="rgb(0, 0, 0)" stroke="rgb(0, 0, 0)" stroke-width="0.5"/><polygon points="0 0 34 0 17 45" transform="translate(53 65)" fill="rgb(255, 255, 255)" stroke="rgb(0, 0, 0)" stroke-width="2"/><polygon points="0 0 25.5 0 12.75 33.75" transform="translate(53 65)" fill="rgb(255, 255, 255)" stroke="rgb(0, 0, 0)" stroke-width="2"/><polygon points="0 0 17 0 8.5 22.5" transform="translate(53 65)" fill="rgb(255, 255, 255)" stroke="rgb(0, 0, 0)" stroke-width="2"/><polygon points="0 0 8.5 0 4.25 11.25" transform="translate(53 65)" fill="rgb(255, 255, 255)" stroke="rgb(0, 0, 0)" stroke-width="2"/><polygon points="0 0 25.5 0 12.75 33.75" transform="translate(61 65)" fill="rgb(255, 255, 255)" stroke="rgb(0, 0, 0)" stroke-width="2"/><polygon points="0 0 17 0 8.5 22.5" transform="translate(70 65)" fill="rgb(255, 255, 255)" stroke="rgb(0, 0, 0)" stroke-width="2"/><polygon points="0 0 8.5 0 4.25 11.25" transform="translate(78 65)" fill="rgb(255, 255, 255)" stroke="rgb(0, 0, 0)" stroke-width="2"/></g><g transform="translate(550 0)"><rect x="20" y="20" width="100" height="100" fill="rgb(255, 255, 255)" stroke="rgb(0, 0, 0)" stroke-width="2"/><ellipse cx="70" cy="60" rx="16.5" ry="16.5" fill="rgb(255, 255, 255)" stroke="rgb(0, 0, 0)" stroke-width="2"/><ellipse cx="77.5" cy="44" rx="4.125" ry="4.125" fill="rgb(0, 0, 0)" stroke="rgb(0, 0, 0)" stroke-width="0.5"/><polygon points="0 0 34 0 17 45" transform="translate(53 65)" fill="rgb(255, 255, 255)" stroke="rgb(0, 0, 0)" stroke-width="2"/><polygon points="0 0 25.5 0 12.75 33.75" transform="translate(53 65)" fill="rgb(255, 255, 255)" stroke="rgb(0, 0, 0)" stroke-width="2"/><polygon points="0 0 17 0 8.5 22.5" transform="translate(53 65)" fill="rgb(255, 255, 255)" stroke="rgb(0, 0, 0)" stroke-width="2"/><polygon points="0 0 8.5 0 4.25 11.25" transform="translate(53 65)" fill="rgb(255, 255, 255)" stroke="rgb(0, 0, 0)" stroke-width="2"/><polygon points="0 0 25.5 0 12.75 33.75" transform="translate(61 65)" fill="rgb(255, 255, 255)" stroke="rgb(0, 0, 0)" stroke-width="2"/><polygon points="0 0 17 0 8.5 22.5" transform="translate(70 65)" fill="rgb(255, 255, 255)" stroke="rgb(0, 0, 0)" stroke-width="2"/><polygon points="0 0 8.5 0 4.25 11.25" transform="translate(78 65)" fill="rgb(255, 255, 255)" stroke="rgb(0, 0, 0)" stroke-width="2"/></g><g transform="translate(550 0)"><rect x="20" y="20" width="100" height="100" fill="rgb(255, 255, 255)" stroke="rgb(0, 0, 0)" stroke-width="2"/><ellipse cx="70" cy="60" rx="16.5" ry="16.5" fill="rgb(255, 255, 255)" stroke="rgb(0, 0, 0)" stroke-width="2"/><ellipse cx="77.5" cy="44" rx="4.125" ry="4.125" fill="rgb(0, 0, 0)" stroke="rgb(0, 0, 0)" stroke-width="0.5"/><polygon points="0 0 34 0 17 45" transform="translate(53 65)" fill="rgb(255, 255, 255)" stroke="rgb(0, 0, 0)" stroke-width="2"/><polygon points="0 0 25.5 0 12.75 33.75" transform="translate(53 65)" fill="rgb(255, 255, 255)" stroke="rgb(0, 0, 0)" stroke-width="2"/><polygon points="0 0 17 0 8.5 22.5" transform="translate(53 65)" fill="rgb(255, 255, 255)" stroke="rgb(0, 0, 0)" stroke-width="2"/><polygon points="0 0 8.5 0 4.25 11.25" transform="translate(53 65)" fill="rgb(255, 255, 255)" stroke="rgb(0, 0, 0)" stroke-width="2"/><polygon points="0 0 25.5 0 12.75 33.75" transform="translate(61 65)" fill="rgb(255, 255, 255)" stroke="rgb(0, 0, 0)" stroke-width="2"/><polygon points="0 0 17 0 8.5 22.5" transform="translate(70 65)" fill="rgb(255, 255, 255)" stroke="rgb(0, 0, 0)" stroke-width="2"/><polygon points="0 0 8.5 0 4.25 11.25" transform="translate(78 65)" fill="rgb(255, 255, 255)" stroke="rgb(0, 0, 0)" stroke-width="2"/></g><g transform="translate(550 0)"><rect x="20" y="20" width="100" height="100" fill="rgb(255, 255, 255)" stroke="rgb(0, 0, 0)" stroke-width="2"/><ellipse cx="70" cy="60" rx="16.5" ry="16.5" fill="rgb(255, 255, 255)" stroke="rgb(0, 0, 0)" stroke-width="2"/><ellipse cx="77.5" cy="44" rx="4.125" ry="4.125" fill="rgb(0, 0, 0)" stroke="rgb(0, 0, 0)" stroke-width="0.5"/><polygon points="0 0 34 0 17 45" transform="translate(53 65)" fill="rgb(255, 255, 255)" stroke="rgb(0, 0, 0)" stroke-width="2"/><polygon points="0 0 25.5 0 12.75 33.75" transform="translate(53 65)" fill="rgb(255, 255, 255)" stroke="rgb(0, 0, 0)" stroke-width="2"/><polygon points="0 0 17 0 8.5 22.5" transform="translate(53 65)" fill="rgb(255, 255, 255)" stroke="rgb(0, 0, 0)" stroke-width="2"/><polygon points="0 0 8.5 0 4.25 11.25" transform="translate(53 65)" fill="rgb(255, 255, 255)" stroke="rgb(0, 0, 0)" stroke-width="2"/><polygon points="0 0 25.5 0 12.75 33.75" transform="translate(61 65)" fill="rgb(255, 255, 255)" stroke="rgb(0, 0, 0)" stroke-width="2"/><polygon points="0 0 17 0 8.5 22.5" transform="translate(70 65)" fill="rgb(255, 255, 255)" stroke="rgb(0, 0, 0)" stroke-width="2"/><polygon points="0 0 8.5 0 4.25 11.25" transform="translate(78 65)" fill="rgb(255, 255, 255)" stroke="rgb(0, 0, 0)" stroke-width="2"/></g><g transform="translate(550 0)"><rect x="20" y="20" width="100" height="100" fill="rgb(255, 255, 255)" stroke="rgb(0, 0, 0)" stroke-width="2"/><ellipse cx="70" cy="60" rx="16.5" ry="16.5" fill="rgb(255, 255, 255)" stroke="rgb(0, 0, 0)" stroke-width="2"/><ellipse cx="77.5" cy="44" rx="4.125" ry="4.125" fill="rgb(0, 0, 0)" stroke="rgb(0, 0, 0)" stroke-width="0.5"/><polygon points="0 0 34 0 17 45" transform="translate(53 65)" fill="rgb(255, 255, 255)" stroke="rgb(0, 0, 0)" stroke-width="2"/><polygon points="0 0 25.5 0 12.75 33.75" transform="translate(53 65)" fill="rgb(255, 255, 255)" stroke="rgb(0, 0, 0)" stroke-width="2"/><polygon points="0 0 17 0 8.5 22.5" transform="translate(53 65)" fill="rgb(255, 255, 255)" stroke="rgb(0, 0, 0)" stroke-width="2"/><polygon points="0 0 8.5 0 4.25 11.25" transform="translate(53 65)" fill="rgb(255, 255, 255)" stroke="rgb(0, 0, 0)" stroke-width="2"/><polygon points="0 0 25.5 0 12.75 33.75" transform="translate(61 65)" fill="rgb(255, 255, 255)" stroke="rgb(0, 0, 0)" stroke-width="2"/><polygon points="0 0 17 0 8.5 22.5" transform="translate(70 65)" fill="rgb(255, 255, 255)" stroke="rgb(0, 0, 0)" stroke-width="2"/><polygon points="0 0 8.5 0 4.25 11.25" transform="translate(78 65)" fill="rgb(255, 255, 255)" stroke="rgb(0, 0, 0)" stroke-width="2"/></g><g transform="translate(550 0)"><rect x="20" y="20" width="100" height="100" fill="rgb(255, 255, 255)" stroke="rgb(0, 0, 0)" stroke-width="2"/><ellipse cx="70" cy="60" rx="16.5" ry="16.5" fill="rgb(255, 255, 255)" stroke="rgb(0, 0, 0)" stroke-width="2"/><ellipse cx="77.5" cy="44" rx="4.125" ry="4.125" fill="rgb(0, 0, 0)" stroke="rgb(0, 0, 0)" stroke-width="0.5"/><polygon points="0 0 34 0 17 45" transform="translate(53 65)" fill="rgb(255, 255, 255)" stroke="rgb(0, 0, 0)" stroke-width="2"/><polygon points="0 0 25.5 0 12.75 33.75" transform="translate(53 65)" fill="rgb(255, 255, 255)" stroke="rgb(0, 0, 0)" stroke-width="2"/><polygon points="0 0 17 0 8.5 22.5" transform="translate(53 65)" fill="rgb(255, 255, 255)" stroke="rgb(0, 0, 0)" stroke-width="2"/><polygon points="0 0 8.5 0 4.25 11.25" transform="translate(53 65)" fill="rgb(255, 255, 255)" stroke="rgb(0, 0, 0)" stroke-width="2"/><polygon points="0 0 25.5 0 12.75 33.75" transform="translate(61 65)" fill="rgb(255, 255, 255)" stroke="rgb(0, 0, 0)" stroke-width="2"/><polygon points="0 0 17 0 8.5 22.5" transform="translate(70 65)" fill="rgb(255, 255, 255)" stroke="rgb(0, 0, 0)" stroke-width="2"/><polygon points="0 0 8.5 0 4.25 11.25" transform="translate(78 65)" fill="rgb(255, 255, 255)" stroke="rgb(0, 0, 0)" stroke-width="2"/></g></svg>